<?xml version="1.0" encoding="UTF-8" standalone="no"?>
<!-- Created with Inkscape (http://www.inkscape.org/) -->

<svg
   version="1.1"
   id="svg9"
   xml:space="preserve"
   width="400px"
   height="400px"
   viewBox="0 0 5333.3335 5333.3335"
   sodipodi:docname="whale.svg"
   inkscape:version="1.1.1 (3bf5ae0d25, 2021-09-20)"
   xmlns:inkscape="http://www.inkscape.org/namespaces/inkscape"
   xmlns:sodipodi="http://sodipodi.sourceforge.net/DTD/sodipodi-0.dtd"
   xmlns="http://www.w3.org/2000/svg"
   xmlns:svg="http://www.w3.org/2000/svg"><defs
     id="defs13" /><sodipodi:namedview
     id="namedview11"
     pagecolor="#ffffff"
     bordercolor="#666666"
     borderopacity="1.0"
     inkscape:pageshadow="2"
     inkscape:pageopacity="0.0"
     inkscape:pagecheckerboard="0"
     showgrid="false"
     inkscape:zoom="0.1515"
     inkscape:cx="2663.3664"
     inkscape:cy="2666.6667"
     inkscape:window-width="1920"
     inkscape:window-height="1046"
     inkscape:window-x="-11"
     inkscape:window-y="-11"
     inkscape:window-maximized="1"
     inkscape:current-layer="g15" /><g
     id="g15"
     inkscape:groupmode="layer"
     inkscape:label="ink_ext_XXXXXX"
     transform="matrix(1.3333333,0,0,-1.3333333,0,5333.3333)"><g
       id="g17"
       transform="scale(0.1)"><path
         d="M 0,0 H 40000 V 40000 H 0 Z"
         style="fill:#66feff;fill-opacity:1;fill-rule:nonzero;stroke:none"
         id="path19" /><path
         d="m 14688.7,29881.3 c -899.5,278.9 -1628.6,367.2 -1749,-225.3 -48.6,-239.6 31.8,-488.9 198,-668.4 501.1,-541.5 934,274 1551,893.7"
         style="fill:#64cbff;fill-opacity:1;fill-rule:nonzero;stroke:none"
         id="path21" /><path
         d="m 18647.5,26261.9 c 0,-239.2 -193.9,-433.1 -433.1,-433.1 -239.2,0 -433,193.9 -433,433.1 0,239.1 193.8,433 433,433 239.2,0 433.1,-193.9 433.1,-433"
         style="fill:#64cbff;fill-opacity:1;fill-rule:nonzero;stroke:none"
         id="path23" /><path
         d="m 28177.8,28200.4 c 958.8,-62.8 1698.8,-266.2 1743.1,-916.1 37.4,-548.3 -656.8,-788.4 -955,-326.7 -49.9,77.2 -97.3,171 -140.5,284.5 -355.7,933.7 -647.6,958.3 -647.6,958.3"
         style="fill:#64cbff;fill-opacity:1;fill-rule:nonzero;stroke:none"
         id="path25" /><path
         d="m 23080.9,31731.5 c 225.7,788.6 557.1,1409.6 1310.7,1361.5 337.9,-21.6 627.1,-275.6 660,-612.7 37,-378.4 -256,-543.3 -755.8,-574.2 -89.3,-5.5 -178.5,5 -267.1,17.8 -253.8,36.6 -581,-45.7 -947.8,-192.4"
         style="fill:#64cbff;fill-opacity:1;fill-rule:nonzero;stroke:none"
         id="path27" /><path
         d="m 18370.9,32623.3 c 0,-295.6 -239.6,-535.1 -535.1,-535.1 -295.5,0 -535.1,239.5 -535.1,535.1 0,295.5 239.6,535.1 535.1,535.1 295.5,0 535.1,-239.6 535.1,-535.1"
         style="fill:#64cbff;fill-opacity:1;fill-rule:nonzero;stroke:none"
         id="path29" /><path
         d="m 22398.4,26743.6 c -438.2,-1469.3 -528.2,-3170.7 -466.5,-4974.4 l -1439.5,-687.8 c 39.9,2190.4 -119,4247.3 -648.7,6055.4 -103,354.1 -220.5,698.7 -354,1033.2 0,0 1746.4,1493.9 3333.9,-307.7 -169.1,-354.8 -309.1,-728.4 -425.2,-1118.7"
         style="fill:#64cbff;fill-opacity:1;fill-rule:nonzero;stroke:none"
         id="path31" /><path
         d="m 19407.2,28238.5 c 497.5,-435.2 963.1,-478.7 1391.5,-67.1 237,227.8 624.2,208 838.1,-41.6 431.2,-503 872.1,-601.4 1326.4,-144.7 250,251.3 629.5,241.6 859.3,-28.2 281.3,-330.2 610.4,-349.2 981.9,-92.5 275.7,190.4 646.4,95.9 810.4,-196.3 492,-876.6 1871.6,-555.1 1541.3,883 -219.2,920.1 -763,1509.4 -1890.9,1503.9 -320.2,-1.6 -629.5,120.6 -859.2,343.6 -475.8,462 -1002.2,605.7 -1582,413.3 -295.2,-97.9 -623.1,-54.5 -867.5,137.7 -687.4,540.7 -1440.8,559.7 -2260.7,52.2 -270.9,-167.7 -611.4,-168.1 -881.4,1.2 -632.1,396.2 -1228.3,275.4 -1791,-327.6 -178.1,-190.8 -435.8,-289.4 -696.2,-273.1 -728.5,45.6 -1169.6,-587.3 -1384.5,-1754.4 -164.4,-1244.3 892.7,-1517.7 1578,-601 192.6,257.7 566.8,307.3 816.7,104.7 482.9,-391.4 901.1,-429.5 1233.6,-0.2 203.3,262.4 586.4,305.6 836.2,87.1"
         style="fill:#ffffff;fill-opacity:1;fill-rule:nonzero;stroke:none"
         id="path33" /><path
         d="m 20736.3,26701.6 c -207.4,0 -421.8,85.7 -642.8,251.5 -98.7,360.8 -210,706.9 -334.2,1040.7 43.8,-22.1 87.4,-40.9 130.7,-56.2 0.2,-0.1 0.4,-0.2 0.6,-0.2 0.1,-0.1 0.1,-0.1 0.2,-0.1 95.8,-34 190.3,-51.3 283.3,-51.3 216,0 424.3,93 624.6,285.4 110.9,106.6 254.7,159 398.2,159 158.1,0 315.9,-63.6 429.1,-188.3 v 0 c 0.4,-0.5 0.8,-0.9 1.2,-1.4 3.1,-3.5 6.3,-7 9.4,-10.6 v 0 c 242.8,-283.3 488.5,-438.4 737.7,-438.4 57.2,0 114.5,8.2 172,24.8 1.6,0.5 3.2,0.9 4.8,1.4 -113.5,-261.4 -215,-536.4 -304.6,-826.4 -15.9,17.4 -31.8,35.3 -47.6,53.8 -114,132.9 -277,200.8 -440.3,200.8 -143.3,0 -286.9,-52.3 -397.7,-158.8 -200.2,-192.6 -408.6,-285.7 -624.6,-285.7"
         style="fill:#468ed4;fill-opacity:1;fill-rule:nonzero;stroke:none"
         id="path35" /><path
         d="m 22546.3,27716.5 c 1.6,0.5 3.3,0.9 4.8,1.4 v 0 c -1.6,-0.5 -3.2,-0.9 -4.8,-1.4 m -2372.2,169.5 c -93,0 -187.5,17.3 -283.3,51.3 52.5,-18.6 104.8,-32.2 156.5,-40.6 0.5,-0.1 0.9,-0.2 1.4,-0.2 0.1,-0.1 0.2,-0.1 0.4,-0.1 41.9,-6.8 83.6,-10.2 125,-10.2 216,0 424.3,92.9 624.5,285.2 2.9,2.9 5.9,5.7 8.9,8.4 109.7,100.9 249.6,150.6 389.2,150.7 0.1,0 0.2,0 0.3,0 0.1,0 0.2,0 0.3,0 158,-0.1 315.6,-63.7 428.7,-188.4 -113.2,124.7 -271,188.3 -429.1,188.3 -143.5,0 -287.3,-52.4 -398.2,-159 -200.3,-192.4 -408.6,-285.4 -624.6,-285.4 m -283.5,51.4 c -0.2,0 -0.4,0.1 -0.6,0.2 0.2,-0.1 0.4,-0.2 0.6,-0.2 m 1736.6,203.3 c -0.4,0.5 -0.8,0.9 -1.2,1.4 0.4,-0.5 0.8,-0.9 1.2,-1.4"
         style="fill:#b2b2d4;fill-opacity:1;fill-rule:nonzero;stroke:none"
         id="path37" /><path
         d="m 26394.9,27182.9 c -294,0 -598,160.2 -780.2,485 -106,189.1 -298.7,295.4 -496.1,295.4 -31.1,0 -62.3,-2.6 -93.3,-8 31.1,5.4 62.4,8.1 93.5,8.1 197.4,0 389.9,-106.3 496,-295.3 182.2,-324.8 486.4,-485.1 780.2,-485.1 142.4,0 282.4,37.6 404.9,112.4 -122.5,-74.8 -262.6,-112.5 -405,-112.5 m 405,112.5 c 0.3,0.2 0.5,0.3 0.7,0.4 -0.2,-0.1 -0.4,-0.2 -0.7,-0.4 m -11396.2,244.8 c -324.5,113.3 -542.6,491.5 -461,1107.9 69.5,379.3 163.1,701.8 283.1,963.1 -119.7,-261.5 -213.3,-584.2 -283.1,-963.3 -81.4,-616.2 136.8,-994.3 461,-1107.7 m 748.4,144.9 c 128.3,87.8 253.7,208.1 368.6,361.8 27.4,36.7 58.5,69.1 92.4,97.2 -33.9,-28.1 -65,-60.7 -92.4,-97.5 -114.9,-153.6 -240.3,-273.7 -368.6,-361.5 m 8174.5,3.4 c -181.6,0 -349.9,87.5 -504,268.2 -111.2,130.6 -257.5,200.3 -407.2,209.1 149.6,-8.7 295.9,-78.3 407.1,-208.9 154.1,-180.9 322.4,-268.4 504.3,-268.4 22.9,0 46,1.4 69.4,4.2 -23.4,-2.8 -46.6,-4.2 -69.6,-4.2 m 2816.2,44.5 0.1,0.1 -0.1,-0.1 m 0.5,1.4 c 0.1,0.1 0.1,0.3 0.2,0.4 -0.1,-0.1 -0.1,-0.3 -0.2,-0.4 m 0.6,1.5 c 0,0.2 0.1,0.3 0.1,0.5 0,-0.2 -0.1,-0.3 -0.1,-0.5 m 0.5,1.6 c 0.1,0.3 0.2,0.6 0.3,0.9 -0.1,-0.3 -0.2,-0.6 -0.3,-0.9 m 0.5,1.5 c 0.6,1.7 1.2,3.3 1.8,5 -0.6,-1.6 -1.2,-3.3 -1.8,-5 m 1.8,5.1 c 32.7,96.7 53.2,205.9 58.5,327.3 -5.3,-121.4 -25.8,-230.6 -58.5,-327.3 m -9121.5,99.5 c -9.9,0 -19.8,0.2 -29.8,0.7 9.9,-0.5 19.8,-0.7 29.6,-0.7 200.8,0 383.6,98.1 546,307.8 84.1,108.5 199,179.6 322.4,210.1 -123.4,-30.6 -238.2,-101.7 -322.3,-210.4 -162.2,-209.4 -345.1,-307.5 -545.9,-307.5 m 9180,228.1 c 0,0.5 0.1,1.1 0.1,1.7 0,-0.5 -0.1,-1.2 -0.1,-1.7 m 0.1,2.5 c 0,0.4 0,0.7 0.1,1.1 -0.1,-0.4 -0.1,-0.7 -0.1,-1.1 m 0.1,2.2 c 0,0.3 0,0.6 0,0.9 0,-0.3 0,-0.6 0,-0.9 m 0.1,2.3 c 0,0.1 0,0.2 0,0.3 0,-0.1 0,-0.2 0,-0.3 m -7863.4,208.7 c -69.3,45.2 -145.8,73.3 -224,84.9 78.2,-11.6 154.8,-39.6 224.2,-84.7 -0.1,0 -0.2,-0.1 -0.2,-0.2"
         style="fill:#47b1d4;fill-opacity:1;fill-rule:nonzero;stroke:none"
         id="path39" /><path
         d="m 22374.5,27691.8 c -148.7,0 -296,55.1 -442.2,159.6 146.2,-104.5 293.6,-159.5 442.3,-159.5 43.1,0 86.4,4.6 129.8,14 -43.4,-9.4 -86.7,-14.1 -129.9,-14.1 m -2566.5,278.9 c -16.2,7.3 -32.5,15 -48.8,23.3 v 0 c 16.3,-8.2 32.6,-16 48.8,-23.3 m 1845.8,139.5 c -5.8,6.6 -11.5,13.2 -17.2,19.9 v 0 c -3.1,3.6 -6.2,7.1 -9.4,10.6 3.2,-3.6 6.4,-7.2 9.6,-10.9 5.7,-6.6 11.3,-13.1 17,-19.6"
         style="fill:#468ed4;fill-opacity:1;fill-rule:nonzero;stroke:none"
         id="path41" /><path
         d="m 26395,27183 c -293.8,0 -598,160.3 -780.2,485.1 -106.1,189 -298.6,295.3 -496,295.3 -31.1,0 -62.4,-2.7 -93.5,-8.1 -76.5,-13.2 -151.7,-43 -221,-90.8 -142.4,-98.4 -278.5,-156.4 -408.1,-171.8 -23.4,-2.8 -46.5,-4.2 -69.4,-4.2 -181.9,0 -350.2,87.5 -504.3,268.4 -111.2,130.6 -257.5,200.2 -407.1,208.9 -10.7,0.6 -21.5,0.9 -32.2,0.9 -148.5,0 -298.1,-59.8 -418.4,-179.8 -16.3,18.5 -36.6,34.1 -60.2,45.4 -26.2,12.4 -53.7,18.3 -80.8,18.3 -70.4,0 -138,-39.7 -170.3,-107.5 -35.1,-74 -69.2,-149 -102.4,-225.2 -15.6,-4.6 -31.1,-8.6 -46.7,-12 -43.4,-9.4 -86.7,-14 -129.8,-14 -148.7,0 -296.1,55 -442.3,159.5 -93.3,66.6 -186.1,153.4 -278.5,258.8 -5.7,6.5 -11.3,13 -17,19.6 -3.2,3.7 -6.4,7.3 -9.6,10.9 -113.2,125.7 -271.3,189.7 -429.9,189.8 -0.1,0 -0.2,0 -0.3,0 v 0 0 c -0.1,0 -0.2,0 -0.3,0 -139.7,-0.1 -279.5,-49.7 -389.2,-150.7 -3,-2.7 -6,-5.5 -8.9,-8.4 -200.2,-192.2 -408.7,-285.1 -624.8,-285.1 -41.3,0 -82.9,3.4 -124.7,10.1 -0.2,0 -0.3,0 -0.4,0.1 -0.5,0 -0.9,0.1 -1.4,0.2 -78.8,12.9 -158.6,37.6 -239.3,74 -16.2,7.3 -32.5,15.1 -48.8,23.3 -30.8,82.8 -62.4,164.7 -94.8,245.9 -29.4,73.7 -100.3,118.6 -175.1,118.6 -23.2,0 -46.8,-4.3 -69.6,-13.4 -31.5,-12.6 -57.7,-32.7 -77.4,-57.5 -69.4,45.1 -146,73.1 -224.2,84.7 -28.1,4.2 -56.4,6.3 -84.7,6.3 -47.1,0 -94.1,-5.7 -140,-17.1 -123.4,-30.5 -238.3,-101.6 -322.4,-210.1 -162.4,-209.7 -345.2,-307.8 -546,-307.8 -9.8,0 -19.7,0.2 -29.6,0.7 -202.3,9.6 -422.4,116.5 -657.7,307.5 -104.3,84.4 -230.2,125 -355.5,125 -132.5,0 -264.2,-45.4 -369.1,-132.7 -33.9,-28.1 -65,-60.5 -92.4,-97.2 -114.9,-153.7 -240.3,-274 -368.6,-361.8 -177.7,-121.6 -361,-181 -530,-181 -76.3,0 -149.8,12.1 -218.4,36.1 -324.2,113.4 -542.4,491.5 -461,1107.7 69.8,379.1 163.4,701.8 283.1,963.3 10.1,22.1 20.5,43.8 31,65 -9.4,-45.7 -18.8,-92.1 -27.6,-140 -98.8,-746.7 242.4,-1143.8 679.2,-1143.8 291.1,0 624.7,176.3 898.9,543 112.1,150.2 286.2,229.9 461.3,229.9 125.2,0 250.9,-40.7 355,-125.4 247.2,-200.1 477.4,-307.9 687.8,-307.9 200.8,0 383.7,98.2 546.3,307.9 115.2,149 288.3,227.2 462.1,227.2 132.6,0 265.7,-45.6 373.7,-140.1 265,-231.8 521,-352.5 767.1,-352.5 216,0 424.4,93 624.5,285.7 110.9,106.5 254.5,158.8 397.8,158.8 163.3,0 326.3,-67.9 440.3,-200.9 242.5,-282.9 488.2,-437.8 737.6,-437.8 193.9,0 390,93.6 588.7,293.5 120.6,120.9 271.2,181.4 420.6,181.4 160.7,0 320,-69.9 439.1,-209.7 153.8,-180.9 322.2,-268.3 504.2,-268.3 150.1,0 309.5,59.6 477.5,175.4 97.5,67.5 206.9,99.3 314.9,99.3 197.2,0 389.6,-106.2 495.5,-295.2 182.3,-324.4 486.4,-484.8 780.1,-484.8 189.1,0 373.9,66.4 519.4,198.2 5.6,-66.7 7,-130.5 4.7,-191.1 0,-0.1 0,-0.2 0,-0.3 0,-0.5 0,-1 -0.1,-1.4 0,-0.3 0,-0.6 0,-0.9 0,-0.4 0,-0.7 0,-1.1 -0.1,-0.4 -0.1,-0.7 -0.1,-1.1 0,-0.3 0,-0.5 0,-0.8 0,-0.6 -0.1,-1.2 -0.1,-1.7 0,-0.2 0,-0.1 0,-0.3 -5.3,-121.4 -25.8,-230.6 -58.5,-327.3 v -0.1 c -0.6,-1.7 -1.2,-3.3 -1.8,-5 0,-0.2 -0.1,-0.3 -0.2,-0.6 -0.1,-0.3 -0.2,-0.6 -0.3,-0.9 -0.1,-0.4 -0.2,-0.7 -0.4,-1.1 0,-0.2 -0.1,-0.3 -0.1,-0.5 -0.2,-0.3 -0.3,-0.8 -0.4,-1.1 -0.1,-0.1 -0.1,-0.3 -0.2,-0.4 -0.1,-0.5 -0.3,-0.9 -0.4,-1.3 l -0.1,-0.1 c -70.2,-200.1 -193.3,-346 -342.2,-437.2 -0.2,-0.1 -0.4,-0.2 -0.7,-0.4 v 0 c -122.5,-74.8 -262.5,-112.4 -404.9,-112.4"
         style="fill:#b2b2d4;fill-opacity:1;fill-rule:nonzero;stroke:none"
         id="path43" /><path
         d="m 20174.1,27886.2 c -41.4,0 -83.1,3.4 -125,10.2 41.8,-6.7 83.4,-10.1 124.7,-10.1 216.1,0 424.6,92.9 624.8,285.1 2.9,2.9 5.9,5.7 8.9,8.4 -3,-2.7 -6,-5.5 -8.9,-8.4 -200.2,-192.3 -408.5,-285.2 -624.5,-285.2 m -125.4,10.3 c -0.5,0 -0.9,0.1 -1.4,0.2 0.5,-0.1 0.9,-0.2 1.4,-0.2"
         style="fill:#7c7cb6;fill-opacity:1;fill-rule:nonzero;stroke:none"
         id="path45" /><path
         d="m 21636.6,28130.1 v 0 c -3.1,3.6 -6.3,7.1 -9.4,10.6 v 0 c 3.2,-3.5 6.3,-7 9.4,-10.6 v 0 m -10.6,12 v 0 0"
         style="fill:#3163b6;fill-opacity:1;fill-rule:nonzero;stroke:none"
         id="path47" /><path
         d="m 21627.2,28140.7 v 0 c -0.4,0.5 -0.8,0.9 -1.2,1.4 v 0 c -113.1,124.7 -270.7,188.3 -428.7,188.4 158.6,-0.1 316.7,-64.1 429.9,-189.8 m -430.5,189.8 c 0.1,0 0.2,0 0.3,0 v 0 c -0.1,0 -0.2,0 -0.3,0"
         style="fill:#7c7cb6;fill-opacity:1;fill-rule:nonzero;stroke:none"
         id="path49" /><path
         d="m 25117.5,28152 c 56,0 112.5,-6.4 168.8,-19.4 207.3,-48 386.9,-183.7 492.7,-372.3 203.1,-361.7 571.7,-449.5 831,-349.4 272.9,105.5 511.5,449.3 362.5,1098 -220.5,925.5 -758.3,1357.8 -1691.3,1357.8 -7.5,0 -15,-0.1 -22.3,-0.1 -371.2,0 -720.4,140.8 -984.1,396.8 -429.4,417 -884.5,537.9 -1391.5,369.7 -365.2,-121.1 -755.2,-58.1 -1043.2,168.5 -625.3,491.7 -1294.2,504.8 -2045.2,40 -334.4,-207 -748.5,-206.3 -1080.5,1.7 -549.4,344.5 -1043,250.4 -1553.3,-296.4 -216.1,-231.5 -524.5,-352.7 -845.7,-332.6 -218.5,13.7 -881.3,55 -1186.6,-1595.8 -58.9,-454.4 59.4,-788 316.8,-892.8 228.9,-93.2 603.4,4.9 924.2,434 123.1,164.7 311.8,273.9 517.4,299.5 206.4,25.8 408.8,-31.5 568.8,-161.2 239.7,-194.3 446.8,-283 615.9,-263.4 125.9,14.6 240.5,90.5 350.1,232.1 130.2,168.1 326.1,276.2 537.3,296.7 210.7,20.4 413.7,-44.7 572,-183.1 562.7,-492.3 903.1,-297.6 1136.8,-73.1 149.8,144.1 355.6,221.3 566.4,210.6 210.7,-10.2 409.5,-106.9 545.3,-265.4 205.9,-240.1 400.8,-365.3 579.4,-371.9 152.1,-6 305.9,72 470.5,237.5 160,160.9 367.9,245.1 582.4,236.5 212.8,-8.2 409.5,-106.1 553.8,-275.5 212.4,-249.4 431.2,-267.2 731.5,-59.7 126.6,87.5 271.6,132.7 420.1,132.7 z m 1277.4,-1158 c -373.3,-0.1 -737.8,213.7 -944.4,581.9 -54.1,96.4 -144.9,165.5 -249.2,189.6 -100.8,23.4 -203.7,3.4 -289.8,-56.1 -456.9,-315.8 -894.6,-271.3 -1232.4,125.3 -75.2,88.3 -175.2,139.2 -281.6,143.3 -109.5,4.4 -215.9,-40.4 -300.8,-125.7 -239.5,-240.8 -494.7,-357.9 -751.5,-348.3 -288,10.7 -574.4,180 -851.4,503.2 -69.7,81.4 -168.2,129 -277.5,134.3 -108.1,5.4 -210.5,-32.3 -287.1,-105.9 -342.7,-329.2 -906.2,-585.9 -1646,61.1 -79.3,69.4 -181.4,101.9 -287.6,91.7 -108.3,-10.5 -208.8,-66.1 -275.7,-152.4 -172.6,-222.8 -376,-349.2 -604.6,-375.6 -277,-32.2 -570.5,80.7 -896.5,344.9 -79.7,64.6 -181,92.9 -285,80 -106.1,-13.2 -199.2,-66.9 -262.2,-151.2 -388,-519 -924.9,-737.8 -1368,-557.4 -427.2,173.9 -631.9,658.3 -547.7,1295.8 0.4,3.2 0.9,6.4 1.5,9.5 242.5,1316.8 775,1958.1 1581.5,1908.3 206,-12.9 409.9,67 546.7,213.6 793.5,850.2 1541.3,664.3 2028.9,358.7 209.4,-131.3 470.7,-131.5 682.1,-0.7 889.2,550.5 1722.4,528.8 2476.4,-64.2 188.3,-148.2 447,-188.2 691.7,-107 644,213.6 1240.3,59.9 1772.5,-457 194.3,-188.6 452.2,-292 727.1,-290.3 5.4,0 11,0 16.4,0 1105.5,0 1798,-554.6 2058.6,-1648.6 203.5,-885.8 -192.6,-1380.4 -593.6,-1535.3 -114.7,-44.3 -233.2,-65.5 -350.8,-65.5"
         style="fill:#000070;fill-opacity:1;fill-rule:nonzero;stroke:none"
         id="path51" /><path
         d="m 20492.2,20893.1 c -1.2,0 -2.4,0 -3.6,0 -104,1.9 -186.7,87.8 -184.8,191.8 53.5,2917.4 -270,5212.2 -989.3,7015.4 -38.6,96.6 8.6,206.2 105.2,244.8 96.3,38.5 206.2,-8.6 244.7,-105.2 748.5,-1876.4 1071.3,-4152.2 1016,-7161.9 -1.8,-102.8 -85.8,-184.9 -188.2,-184.9"
         style="fill:#000070;fill-opacity:1;fill-rule:nonzero;stroke:none"
         id="path53" /><path
         d="m 21932,21581 c -101,0 -184.6,80.1 -188.1,181.9 -93.3,2715.4 195.7,4679.2 909.6,6180.2 44.8,93.9 157.1,133.9 251.1,89.2 93.9,-44.7 133.8,-157.1 89.2,-251 -687,-1444.4 -964.5,-3352.7 -873.4,-6005.5 3.6,-103.9 -77.8,-191.1 -181.8,-194.7 -2.2,-0.1 -4.4,-0.1 -6.6,-0.1"
         style="fill:#000070;fill-opacity:1;fill-rule:nonzero;stroke:none"
         id="path55" /><path
         d="m 13598.1,29909.1 c -130.9,0 -247.1,-19.1 -330.2,-68.3 -76.3,-45.2 -121.9,-115.8 -143.5,-222.3 -35.4,-174.1 21.2,-362.2 151.5,-502.9 109.3,-118.1 178.4,-117 201.9,-116.8 179.3,2.8 435.7,297.8 683.6,583 58.8,67.6 118.6,136.3 180.1,205 -222.8,60 -507,122.3 -743.4,122.3 z m -122.9,-1287 c -169.8,0 -329.9,79.9 -475.8,237.5 -212.4,229.5 -303.7,541.3 -244.3,833.9 43.2,212.3 151.1,370.9 320.8,471.4 321.3,190.3 820.3,159.4 1668.6,-103.7 62.9,-19.5 111.1,-70.5 127,-134.5 15.9,-64 -2.8,-131.6 -49.3,-178.3 -132,-132.5 -256.3,-275.5 -376.4,-413.8 -329.8,-379.4 -614.6,-707.1 -962.1,-712.5 -2.9,0 -5.7,0 -8.5,0"
         style="fill:#000070;fill-opacity:1;fill-rule:nonzero;stroke:none"
         id="path57" /><path
         d="m 18214.4,26533.5 c -149.7,0 -271.6,-121.9 -271.6,-271.6 0,-149.8 121.9,-271.6 271.6,-271.6 149.8,0 271.6,121.8 271.6,271.6 0,149.7 -121.8,271.6 -271.6,271.6 z m 0,-866.2 c -327.8,0 -594.5,266.8 -594.5,594.6 0,327.8 266.7,594.5 594.5,594.5 327.9,0 594.6,-266.7 594.6,-594.5 0,-327.8 -266.7,-594.6 -594.6,-594.6"
         style="fill:#000070;fill-opacity:1;fill-rule:nonzero;stroke:none"
         id="path59" /><path
         d="m 28140.8,28027.4 z m 21.5,-3.7 h 0.2 z m 0.2,0 0.3,-0.1 z m 504.4,-51.4 c 101.1,-155.5 211.3,-370.4 324.3,-667 36.9,-96.9 78.5,-181.5 123.7,-251.4 108.1,-167.3 273.9,-184.7 393.2,-145.1 123.2,40.9 249.8,157.9 235.8,363.4 -25.3,371.9 -362.2,594.7 -1077,700.1 z m 728.1,-1437.4 c -229.2,0 -442.4,116.2 -578.1,326.4 -58.7,90.7 -111.6,197.6 -157.3,317.7 -274.1,719.6 -491.7,836.2 -516.4,847.4 -86.9,17.2 -149.1,96.9 -142.4,187.3 7.3,97.1 91.5,169.2 188.6,163.8 858.1,-56.3 1850.5,-230 1908.5,-1081.1 22.6,-330.8 -169.5,-621.9 -477.9,-724.3 -75.3,-25 -151,-37.2 -225,-37.2"
         style="fill:#000070;fill-opacity:1;fill-rule:nonzero;stroke:none"
         id="path61" /><path
         d="m 24311,32907.2 c -420.4,0 -705.2,-262 -933.4,-872.3 269,78.6 489.2,102.6 678,75.4 71.1,-10.2 153.3,-20.8 228.6,-16.1 339.7,21 476.5,102.2 531.4,166.6 26.3,30.8 59.9,85.3 48.5,201.2 -23,236.4 -231.4,426.8 -484.5,443 -23.3,1.5 -46.2,2.2 -68.6,2.2 z m -1230.1,-1364.1 c -45.9,0 -91,16.7 -126.3,48.6 -53.3,48.2 -74.6,122.5 -54.8,191.6 208.6,728.6 568,1557.3 1503.8,1497.7 435.5,-27.9 794.7,-364.2 835.5,-782.4 18.7,-191.5 -27.3,-353.7 -136.8,-482.2 -150.9,-177 -410.8,-274.5 -794.9,-298.3 -111,-6.9 -216,6.4 -305.6,19.3 -197.1,28.6 -475.5,-30.7 -851,-180.8 -22.6,-9.1 -46.3,-13.5 -69.9,-13.5"
         style="fill:#000070;fill-opacity:1;fill-rule:nonzero;stroke:none"
         id="path63" /><path
         d="m 17835.8,32970 c -191.2,0 -346.7,-155.5 -346.7,-346.7 0,-191.2 155.5,-346.7 346.7,-346.7 191.2,0 346.7,155.5 346.7,346.7 0,191.2 -155.5,346.7 -346.7,346.7 z m 0,-1070.2 c -399,0 -723.5,324.6 -723.5,723.5 0,398.9 324.5,723.4 723.5,723.4 398.9,0 723.4,-324.5 723.4,-723.4 0,-398.9 -324.5,-723.5 -723.4,-723.5"
         style="fill:#000070;fill-opacity:1;fill-rule:nonzero;stroke:none"
         id="path65" /><path
         d="m 34308.8,21491.5 c 519.9,-11061.4 -9893.4,-14944.6 -18374,-12046.8 -8.1,2.1 -16.7,5.4 -24.8,8.1 -67.8,-49 -136.1,-96.9 -205.6,-143.2 l -2.1,-1.1 C 14295.4,8367.2 12589.8,7998 10963.9,8276.2 c -413.4,71.1 -574.8,578.6 -274,870.9 108.7,105.4 215.3,212 319.7,320.2 v 0.5 c 516.7,535 969.9,1099.6 1313.2,1716.9 -12.3,8.1 -24.2,16.2 -36,24.3 -12.9,8.6 -25.9,17.2 -38.8,25.8 -2128.6,1437.5 -3562.4,3505.9 -4093.62,6392.3 -217.97,1187.3 -283.62,2512.9 -181.91,3989.8 8.07,122.2 17.77,246 28.52,370.3 -2077.5,348.8 -3018.82,1375.7 -3055.42,2942.4 -1.07,38.2 4.3,74.3 15.07,108.2 v 0.5 c 59.74,188.4 284.71,289 475.77,186.2 582.88,-313.7 1354.68,-377.8 2198.06,-347.7 128.65,4.9 258.35,0 385.37,-23.1 543.05,-98.5 747.57,-417.1 841.23,-807.3 13.45,-55.5 87.72,-63.5 111.94,-12.4 178.15,373 459.1,607.1 856.29,685.2 144.25,27.9 292.2,27.9 438.1,11.8 673.3,-74.3 1320.2,-106.6 1934.3,-84.5 353.6,22.6 590.5,149.6 731,257.3 86,65.6 210.4,17.7 229.8,-88.8 3.7,-21 7,-41.5 9.6,-62.5 182.5,-1287.4 -1307.8,-2821.3 -3414.92,-2705 36.06,-763.2 215.84,-1374.6 512.42,-1846.6 l 0.5,-0.6 c 797.1,-1269.1 2438.6,-1536.6 4410.7,-1062.4 595.7,143.2 1173.3,351.4 1730.3,606.6 3248.7,1485.4 6301.4,2983.8 9025.3,4504.8 895.6,500 1865.4,857.9 2875.1,1038.7 2664.7,478 4697.5,-376.2 5279.3,-2029 9.7,-26.9 18.9,-53.8 27.5,-81.3 1016.7,-211 1130.2,-1076.4 681.4,-1507 3.2,-59.7 6.4,-119.5 9.1,-178.7 v -0.5"
         style="fill:#228cff;fill-opacity:1;fill-rule:nonzero;stroke:none"
         id="path67" /><path
         d="m 8919.69,23533.2 c -25.64,0 -51.25,16.2 -58.62,46.6 -29.22,121.7 -69.25,236.5 -126.97,339.8 38.29,-50.5 96.38,-84.5 161.82,-91.2 8.26,-0.9 16.46,-1.3 24.6,-1.3 89.13,0 169.43,50.4 208.36,132.5 158.16,331.1 398.14,524.2 733.35,590 67.68,13.1 138.87,19.7 215.17,19.7 54.3,0 111.2,-3.4 171.1,-10 560.4,-61.8 1074.2,-92.3 1561.3,-92.3 136.3,0 270.5,2.4 403,7.1 369.3,23.6 627.6,151.6 787.3,264.8 13.3,-89 17.5,-180 13,-272 -27.7,-1.4 -55.7,-10.9 -80.4,-29.8 -140.5,-107.6 -377.4,-234.6 -731,-257.2 -127.6,-4.6 -256.7,-6.9 -387.2,-6.9 -497,0 -1013.8,32.5 -1547.1,91.4 -62.9,6.9 -126.3,10.9 -189.6,10.9 -83.33,0 -166.51,-6.9 -248.5,-22.8 -397.19,-78 -678.14,-312.2 -856.29,-685.1 -10.95,-23.1 -32.15,-34.2 -53.32,-34.2 m -212.39,431.5 c -129.83,205.3 -338.9,359.2 -687.46,422.4 -98.16,17.9 -197.95,24.8 -297.59,24.8 -29.29,0 -58.55,-0.6 -87.78,-1.7 -120.66,-4.3 -239.92,-6.7 -357.31,-6.7 -703.11,0 -1341.26,85.5 -1840.75,354.4 -52.3,28.2 -107.25,41.1 -160.63,41.1 -52.74,0 -103.95,-12.5 -149.67,-35.5 -3.91,56 -6.53,112.7 -7.88,170.5 -2,80 50.25,120.9 72.8,134.8 25.94,16 54.99,24 84.28,24 26.91,0 54.06,-6.8 79.2,-20.4 471.37,-253.7 1091.71,-374.7 1934.45,-374.7 113.26,0 230.61,2.2 352.07,6.6 27.92,1 55.04,1.5 81.44,1.5 97.72,0 185.49,-7.2 266.57,-22.1 402.04,-72.9 606.05,-269.2 704.19,-678.1 3.46,-14.2 8.2,-27.9 14.07,-40.9"
         style="fill:#a7d1ff;fill-opacity:1;fill-rule:nonzero;stroke:none"
         id="path69" /><path
         d="m 12990.7,18451.7 c -1470.9,-0.1 -2587.7,597.1 -3031.34,1952.6 199.44,-415.3 476.44,-756.9 829.94,-1022.2 563.5,-422.9 1310,-636.2 2203.3,-636.2 527.5,0 1106.3,74.4 1728.6,224 577.5,138.9 1170.3,346.6 1761.7,617.5 3562.3,1628.8 6518.6,3104.5 9037.7,4511.1 899.9,502.4 1849.1,845.4 2821.4,1019.5 482.2,86.5 947.8,129.5 1390.3,129.5 733.7,0 1403.6,-118.3 1979,-352.7 809.8,-330 1382.8,-869.5 1669.2,-1567.9 -13.8,-1.9 -27.5,-3.8 -41.2,-5.8 -629.9,1026.9 -1927.1,1632.2 -3609.2,1632.2 -447.5,0 -921.9,-42.8 -1418.6,-131.9 -1009.7,-180.8 -1979.5,-538.7 -2875.1,-1038.7 -2723.9,-1521 -5776.6,-3019.4 -9025.3,-4504.9 -557,-255.1 -1134.6,-463.4 -1730.3,-606.5 -598.5,-143.9 -1166.9,-219.5 -1690.1,-219.6"
         style="fill:#a7d1ff;fill-opacity:1;fill-rule:nonzero;stroke:none"
         id="path71" /><path
         d="m 12921.9,12828.4 c -139.4,-591.5 -368.7,-1119.4 -673.9,-1593.6 -2128.6,1437.5 -3562.4,3505.9 -4093.62,6392.3 0,1.6 0,2.2 0,2.2 896.68,-2311.1 2665.82,-3920.9 4767.52,-4800.9"
         style="fill:#ffffff;fill-opacity:1;fill-rule:nonzero;stroke:none"
         id="path73" /><path
         d="m 34299.7,21670.7 c 641,-11198.6 -9838.5,-15139.4 -18364.9,-12226 1220.1,793.3 2155.5,2657.1 2155.5,2657.1 2346.6,259.5 4607.1,1305.2 6202.9,3166.9 l -119.5,458.5 c 0,0 164.7,-209.9 2276.1,407.5 2110.9,617.8 3392.4,3297.6 3903.2,4226.5 510.7,929 982.2,1708.9 1754,2294.4 439.7,333.2 1044.7,511.9 1483.8,603.4 9.7,-26.9 18.9,-53.8 27.5,-81.3 1016.7,-211 1130.2,-1076.4 681.4,-1507"
         style="fill:#ffffff;fill-opacity:1;fill-rule:nonzero;stroke:none"
         id="path75" /><path
         d="m 18744.6,10158.5 c -615.2,0 -1228.3,37.2 -1834,113.4 -40.3,4.5 -71.9,38.7 -71.9,80.2 0,48 43.3,86.3 91.1,80.1 599.7,-75.5 1207.8,-112.4 1816.9,-112.4 3573.8,-0.1 7201.2,1267.6 9617.2,3435 2018.9,1811.3 3063.5,4101.4 3020.8,6622.8 -0.7,44.6 34.8,81.4 79.4,82.1 h 1.4 c 43.9,0 79.9,-35.2 80.7,-79.3 43.5,-2569.7 -1019.7,-4902.3 -3074.5,-6745.7 -2444.6,-2193.2 -6114.1,-3476.1 -9727.1,-3476.2"
         style="fill:#6161c1;fill-opacity:1;fill-rule:nonzero;stroke:none"
         id="path77" /><path
         d="m 20155,9384.8 c -1239.1,0 -2514.2,116.2 -3799.7,353.7 -43.8,8.1 -72.8,50.2 -64.7,94 8.1,43.9 50.6,72.9 94,64.8 5069.9,-936.7 9971.8,26.1 13112.5,2575.6 2586.3,2099.4 3945.7,5134.4 4040.5,9020.6 1,43.9 37,78.7 80.6,78.7 h 2 c 44.6,-1.1 79.9,-38.1 78.8,-82.7 -49.4,-2025.7 -449.8,-3850.7 -1190.1,-5424.3 -684.7,-1455.2 -1663.7,-2706 -2910,-3717.6 C 27220.3,10416.7 23847.1,9384.8 20155,9384.8"
         style="fill:#6161c1;fill-opacity:1;fill-rule:nonzero;stroke:none"
         id="path79" /><path
         d="m 17643.6,11212.2 c -44.3,0 -80.3,35.7 -80.7,80.1 -0.3,44.6 35.5,81 80.1,81.3 2127.1,16.5 4369.1,548.5 6313,1497.9 1809.4,883.7 3120,2010.4 3596,3091.2 17.9,40.8 65.6,59.3 106.4,41.3 40.8,-18 59.3,-65.6 41.3,-106.4 -491,-1115.1 -1829.8,-2271 -3672.8,-3171.2 -1965.2,-959.8 -4231.9,-1497.6 -6382.6,-1514.2 h -0.7"
         style="fill:#6161c1;fill-opacity:1;fill-rule:nonzero;stroke:none"
         id="path81" /><path
         d="m 12584.3,11635.7 c -13.2,0 -26.6,3.3 -38.9,10.1 -1871.7,1032.8 -3244.2,2524.2 -4079.61,4432.8 -16.94,38.7 -1.12,84 36.28,103.8 37.55,19.7 83.74,7.2 106.16,-28.6 1071.82,-1714.6 2490.77,-2990.9 4217.47,-3793.6 40.4,-18.8 57.9,-66.8 39.1,-107.3 -18.8,-40.3 -66.6,-58 -107.2,-39.1 -1410.3,655.6 -2618.3,1621.4 -3603.28,2878.8 825.44,-1379.5 1988.28,-2488.3 3469.08,-3305.4 39,-21.6 53.2,-70.7 31.7,-109.7 -14.7,-26.7 -42.3,-41.8 -70.8,-41.8"
         style="fill:#6161c1;fill-opacity:1;fill-rule:nonzero;stroke:none"
         id="path83" /><path
         d="m 8817.26,24108.6 -0.34,-0.7 0.34,0.7 m -3541.95,984.2 c -29.29,0 -58.34,-8 -84.28,-24 -22.55,-13.9 -74.8,-54.8 -72.8,-134.8 36.09,-1545.6 988.38,-2453.7 2911.38,-2776.5 88.77,-14.9 151.18,-95.5 143.46,-185.1 -429.25,-4982.5 959.37,-8464.1 4245.23,-10643.7 75.1,-49.9 99.3,-149.2 55.4,-228 -382.7,-687.6 -911.3,-1347.9 -1663.5,-2077.6 -92.7,-90 -125.2,-217.3 -87,-340.5 38.8,-125.5 139.7,-213.8 269.9,-236.2 1662.6,-284.6 3417.8,133.1 4815.6,1146.2 45.5,32.9 104.2,41.7 157.4,23.5 1827.8,-627.6 3706.2,-935 5528.9,-935.1 3102.1,-0.1 6044.1,890 8310.5,2608 2149.2,1629.1 4643.4,4750.9 4321.8,10371.8 -2.9,50.5 16.4,99.6 52.8,134.5 171.2,164.2 237.4,405.7 172.8,630.3 -82.2,286.1 -362.8,498.6 -769.7,583 -61.1,12.7 -110.6,57.3 -129.5,116.7 -253.7,796.5 -856.3,1408.4 -1742.4,1769.5 -922.5,375.9 -2087.6,453 -3369.3,223.2 -972.3,-174.1 -1921.5,-517.1 -2821.4,-1019.5 -2519.1,-1406.6 -5475.4,-2882.3 -9037.7,-4511.1 -591.4,-270.9 -1184.2,-478.6 -1761.7,-617.5 -1676,-402.9 -3035.7,-260.4 -3931.9,412.2 -742.4,557.1 -1147.68,1451.2 -1204.61,2657.2 -2.29,48.8 16.16,96.4 50.88,130.8 34.67,34.4 82.61,52.3 131.1,49.8 1069.03,-59.3 2082.33,334.1 2713.23,1051.1 403.4,458.5 591.4,990.8 520.2,1467.9 -159.7,-113.2 -418,-241.2 -787.3,-264.8 -606.3,-21.7 -1247.2,6.1 -1964.3,85.2 -143.9,16 -270.36,12.8 -386.27,-9.7 -335.21,-65.8 -575.19,-258.9 -733.35,-590 -42.49,-89.6 -134.23,-141.4 -232.96,-131.2 -97.91,10 -179.35,81.2 -202.69,177.2 -98.14,408.9 -302.15,605.2 -704.19,678.1 -102.98,18.9 -216.76,25.5 -348.01,20.6 -1025.29,-36.7 -1751.8,80.3 -2286.52,368.1 -25.14,13.6 -52.29,20.4 -79.2,20.4 M 12027.1,8013.7 c -365.6,-0.1 -730.9,30.4 -1092.4,92.3 -257.1,44.2 -464.6,226 -541.5,474.4 -76.2,246.2 -8.7,510.8 176.4,690.5 676.5,656.4 1164.3,1251.5 1523.5,1860.4 -1566.9,1073.5 -2721.94,2475.5 -3434.39,4169.3 -759.33,1805.2 -1042.67,4006.4 -842.77,6544.2 -1980.52,375.2 -3004.05,1411.1 -3043.02,3080.8 -4.54,179.7 84.13,343.4 237.26,437.5 155.91,95.8 345.84,100.9 508.1,13.5 478.37,-257.5 1148.73,-361.7 2110.06,-327.2 156.4,5.9 294.68,-2.5 422.46,-25.8 542.43,-98.4 780.47,-397.5 898.78,-685.4 204.35,295.4 488.04,480 846.44,550.4 151.02,29.3 311.28,33.8 490.38,14 700.2,-77.2 1324.7,-104.5 1909.1,-83.5 308.2,19.8 514.3,131.5 632.1,221.8 89,67.8 203.9,84.2 307.6,44 103.5,-40.1 177.3,-129.5 197.2,-239 109.5,-592.8 -106.7,-1250.2 -593.2,-1803.1 -654.7,-744 -1674.9,-1174 -2763.45,-1174.1 -11.33,0 -22.7,0.1 -34.04,0.2 82.19,-1003.4 436.59,-1746.5 1054.89,-2210.5 811.2,-608.8 2071.1,-730.7 3643.8,-352.6 556,133.6 1127.5,334 1698.8,595.7 3553.9,1625 6502,3096.5 9013,4498.6 933.4,521.1 1918.9,877.1 2928.9,1058 1346.3,241.3 2577.5,157.2 3560.6,-243.4 949.4,-386.9 1607.7,-1039.4 1909.6,-1890.7 484.4,-126.3 822.1,-415.1 933.6,-802.9 92.6,-321.9 12.5,-665.5 -208.7,-915.7 123.5,-2329.2 -226.8,-4441.4 -1041.3,-6279.4 -761.2,-1717.9 -1912.1,-3168.7 -3420.7,-4312.3 -1824.4,-1382.9 -4129.6,-2268.2 -6666.4,-2560.3 -2449.7,-282 -5009.7,-2.9 -7409.5,807.3 -1154.4,-813.7 -2532.6,-1247 -3911.2,-1247"
         style="fill:#000070;fill-opacity:1;fill-rule:nonzero;stroke:none"
         id="path85" /><path
         d="m 24388.9,15540.7 c -73.6,0 -147.4,1.4 -221.7,4.3 -95.4,3.6 -169.7,83.8 -166.1,179.1 3.7,95.3 82,170.2 179.2,166 2420.1,-91.7 4443,1438.2 6018.5,4549.2 678.3,1368.3 1614.1,2785.3 3407.4,2910.7 95.2,6.9 177.7,-65.1 184.4,-160.2 6.6,-95.2 -65.1,-177.7 -160.3,-184.4 -1619.3,-113.2 -2487.2,-1438.9 -3122.6,-2720.9 -1595,-3149.3 -3652.7,-4743.8 -6118.8,-4743.8"
         style="fill:#000070;fill-opacity:1;fill-rule:nonzero;stroke:none"
         id="path87" /><path
         d="m 24395,16311.4 c -16,-134.6 -36.4,-268.3 -44.3,-393 -8.3,-125.6 -8.6,-246.5 13.9,-363.4 23.4,-116.4 67.4,-228 133.1,-334.5 65.9,-106.5 151.3,-207.5 248.3,-308.5 l 1.3,-1.3 c 31.5,-32.8 30.5,-84.9 -2.3,-116.5 -24,-23.1 -58.5,-28.7 -87.6,-17.1 -142.6,56.8 -276,147 -387.8,266.2 -110.9,119.8 -194.6,272.3 -236.2,435.8 -40.6,163.4 -43.4,334.6 -4.8,492.1 18.7,78.8 47.3,154.3 84,224.9 38.1,71.1 80.8,134.8 142.3,195.6 32.8,32.4 85.6,32.1 118,-0.7 18.4,-18.7 26.2,-43.9 23.5,-68 l -1.4,-11.6"
         style="fill:#000070;fill-opacity:1;fill-rule:nonzero;stroke:none"
         id="path89" /><path
         d="m 34131.9,21630.5 c 0.7,-0.9 -0.4,4.3 -1.3,8.8 -0.7,4.2 -1.9,9 -3.5,14.2 -2.7,10 -5.3,20.1 -9.3,30.5 -6.4,21 -15.9,41.3 -24.5,62.1 -20.1,40.1 -42.5,80.2 -71,115.4 -55.5,72 -128.1,130.7 -213.1,174.1 l -66.7,28 c -22,10.5 -47.1,13.8 -70.8,21.3 -47.1,16.3 -98.9,18.7 -149.6,27.1 -51.4,5.1 -104.4,3.1 -157.3,5.2 l -160.7,-14 -8.3,-0.8 c -44.3,-3.8 -83.4,28.9 -87.3,73.3 -3.5,40.6 23.8,76.8 62.5,85.5 l 174.2,39.4 c 60,6.3 120,16.4 181.5,18.8 15.9,-0.3 31.9,-0.2 47.9,-0.1 46,0.3 92.4,0.6 139.2,-7.8 31.4,-5.1 63.5,-6 94.7,-15.1 l 94.3,-25.3 c 124.2,-42.1 243.3,-112.4 340.5,-207.5 49.4,-46.7 91.3,-100.6 129.6,-157 17.8,-29.2 36.1,-58.2 51.2,-89.6 8.2,-15.1 15.4,-31.6 22.5,-48 3.6,-8 7.1,-16.6 10.4,-25.9 3.3,-9 6.6,-17.2 10.8,-31.8 22.3,-92.8 -34.8,-186 -127.6,-208.3 -92.7,-22.3 -186,34.8 -208.3,127.5"
         style="fill:#000070;fill-opacity:1;fill-rule:nonzero;stroke:none"
         id="path91" /><path
         d="m 17907.3,13909.4 c 105.4,-56.3 206.9,-124 297.4,-208.5 91.5,-87.2 168.3,-192.1 219.8,-309.1 107,-233.5 112.3,-507.7 30.6,-752.4 -149.2,-439.6 -342,-864.1 -573.9,-1268.3 -234.2,-402.5 -504.3,-787.1 -820.3,-1132.1 -313.2,-347.2 -666.4,-658.7 -1049.6,-926.1 -78.2,-54.6 -185.9,-35.5 -240.5,42.8 -52.9,75.8 -36.5,179.5 36,235.4 l 1.9,1.5 c 351.5,270.7 684.9,564.4 984.2,891.7 302.5,324 572.6,678.3 813.1,1052.8 237.3,376.5 438,777.6 608.6,1190.6 73.8,182.6 80.5,394.6 11.7,582.8 -33.3,94.5 -87.6,181.2 -155.3,256.4 -71.1,76.2 -154.6,144.2 -245.4,203.2 l -0.4,0.2 c -37.4,24.4 -48,74.4 -23.7,111.8 23,35.4 69.2,46.6 105.8,27.3"
         style="fill:#000070;fill-opacity:1;fill-rule:nonzero;stroke:none"
         id="path93" /><path
         d="m 13066.9,13303.8 c -17.1,-379.7 -76.2,-759.7 -177.1,-1129.7 -100.5,-370.2 -242.3,-730.1 -416.1,-1073.4 l -0.2,-0.4 c -43.1,-85.2 -147.1,-119.3 -232.2,-76.2 -85.2,43.1 -119.3,147.1 -76.3,232.3 2.1,4.1 4.6,8.4 6.9,12.4 190.3,310 351.9,638.1 476.2,981.5 124.5,343.3 211.2,701.6 257.9,1067.2 5.6,44.3 46,75.7 90.3,70.1 41.9,-5.3 72.3,-42.3 70.6,-83.8"
         style="fill:#000070;fill-opacity:1;fill-rule:nonzero;stroke:none"
         id="path95" /><path
         d="m 22382.8,15039 c 113.2,-294.9 -233.7,-702.3 -774.9,-910 -541.1,-207.7 -1071.5,-137 -1184.7,157.9 -113.2,294.8 233.8,702.2 774.9,909.9 541.2,207.7 1071.6,137 1184.7,-157.8"
         style="fill:#ff6eba;fill-opacity:1;fill-rule:nonzero;stroke:none"
         id="path97" /><path
         d="m 12027.8,8359 c -346.1,0 -692.5,28.9 -1034.7,87.4 -130.2,22.4 -231.1,110.7 -269.9,236.2 -38.2,123.2 -5.7,250.5 87,340.5 74.2,72 146.2,143.3 216.2,214 72.5,-287.9 327.7,-312.9 327.7,-312.9 140.5,-22.9 287.4,-33.9 439.9,-33.9 2367,0.2 6015.2,2659.9 5801.4,4740.8 -13.8,134.4 87.9,233.8 203.6,247 -21,-36.9 -9.9,-84.3 26.2,-107.8 l 0.4,-0.2 c 90.8,-59 174.3,-127 245.4,-203.2 67.7,-75.2 122,-161.9 155.3,-256.4 68.8,-188.2 62.1,-400.2 -11.7,-582.8 -170.6,-413 -371.3,-814.1 -608.6,-1190.6 -240.5,-374.5 -510.6,-728.8 -813.1,-1052.8 -299.3,-327.3 -632.7,-621 -984.2,-891.7 l -0.3,-0.2 C 14698.3,8788 13363.2,8359 12027.8,8359"
         style="fill:#1862d4;fill-opacity:1;fill-rule:nonzero;stroke:none"
         id="path99" /><path
         d="m 12032.8,8185.8 c -357.4,0 -715.2,29.9 -1068.9,90.4 -413.4,71.1 -574.8,578.6 -274,870.9 108.7,105.4 215.3,212 319.7,320.2 -6.3,-91.1 0.8,-167 16.8,-230.2 -70,-70.7 -142,-142 -216.2,-214 -92.7,-90 -125.2,-217.3 -87,-340.5 38.8,-125.5 139.7,-213.8 269.9,-236.2 342.2,-58.5 688.6,-87.4 1034.7,-87.4 1335.4,0 2670.5,429 3780.6,1233.4 l -1.6,-1.3 c -56.8,-43.8 -79.2,-116.9 -60.7,-183 -21.6,-24.3 -32.3,-60.8 -41.4,-98 -0.2,-1.1 -1.8,-0.9 -2.4,-1.6 C 14601.5,8572 13318.1,8185.8 12032.8,8185.8"
         style="fill:#000070;fill-opacity:1;fill-rule:nonzero;stroke:none"
         id="path101" /><path
         d="m 18256.3,12121.5 c 68.3,159.1 130.8,320.5 187.2,484.1 27.3,-162.1 55.3,-310.4 83.8,-446.2 -90.2,-13.8 -180.5,-26.4 -271,-37.9"
         style="fill:#1862d4;fill-opacity:1;fill-rule:nonzero;stroke:none"
         id="path103" /><path
         d="m 21179.8,8843 c -1617,0 -3262.7,236.2 -4852.6,705.8 65.3,52 129.4,105.3 192.5,160 1229.8,-217.5 2449.1,-324 3635.3,-324 3692.1,0 7065.3,1031.9 9443.9,2962.8 1246.3,1011.6 2225.3,2262.4 2910,3717.6 740.3,1573.6 1140.7,3398.6 1190.1,5424.3 1.1,44.6 -34.2,81.6 -78.8,82.7 h -2 c -43.6,0 -79.6,-34.8 -80.6,-78.7 -94.8,-3886.2 -1454.2,-6921.2 -4040.5,-9020.6 -2350,-1907.6 -5685.8,-2926.9 -9340.4,-2926.9 -1137,0 -2305.2,98.7 -3483.7,300 135.1,125.1 264.6,256.3 387.9,393 4.1,4.5 8.2,8.9 12.2,13.4 552.8,-63.1 1111.2,-93.9 1671.5,-93.9 3613,0.1 7282.5,1283 9727.1,3476.2 2054.8,1843.4 3118,4176 3074.5,6745.7 -0.8,44.1 -36.8,79.3 -80.7,79.3 h -1.4 c -44.6,-0.7 -80.1,-37.5 -79.4,-82.1 42.7,-2521.4 -1001.9,-4811.5 -3020.8,-6622.8 -2416,-2167.4 -6043.4,-3435.1 -9617.2,-3435 v 0 c -516.7,0 -1032.8,26.6 -1543.6,80.7 216.3,255.3 409.9,529.1 584.3,813.6 328.9,6 660.1,24.2 992.6,54 192.4,-481.9 371.8,-553.8 461.6,-553.8 38.2,0 60.2,12.9 60.2,12.9 52.7,-1 105.3,-1.5 158.5,-1.5 4372.7,0.2 10538.8,3364.5 11164.1,7773.7 143.7,1013.9 552.1,1974.4 1221.1,2749.9 392.6,455.1 705,686.8 705,686.8 209.2,119.6 394.3,197.2 557.9,242.1 0,-0.8 0.1,-1.7 0.1,-2.5 3.7,-42 38.9,-73.6 80.2,-73.6 2.3,0 4.7,0.1 7.1,0.3 l 8.3,0.8 160.7,14 c 52.9,-2.1 105.9,-0.1 157.3,-5.2 50.7,-8.4 102.5,-10.8 149.6,-27.1 23.7,-7.5 48.8,-10.8 70.8,-21.3 l 66.7,-28 c 68.7,-35 129.2,-80.1 179.2,-134.1 16.4,-49.2 23.4,-81.9 24.4,-86.5 v -0.6 C 34422.3,13101.5 28049.5,8843 21179.8,8843 M 17885,11377.7 c 138,241.1 262.1,489.4 371.3,743.8 90.5,11.5 180.8,24.1 271,37.9 63.6,-303.3 129.5,-543.9 194.7,-734.3 -280,-24.3 -559.4,-40.2 -837,-47.4"
         style="fill:#b2b2d4;fill-opacity:1;fill-rule:nonzero;stroke:none"
         id="path105" /><path
         d="m 18744.6,10158.5 c -560.3,0 -1118.7,30.8 -1671.5,93.9 44.2,48.6 87.6,98 130,148.1 510.8,-54.1 1026.9,-80.7 1543.6,-80.7 v 0 c 3573.8,-0.1 7201.2,1267.6 9617.2,3435 2018.9,1811.3 3063.5,4101.4 3020.8,6622.8 -0.7,44.6 34.8,81.4 79.4,82.1 h 1.4 c 43.9,0 79.9,-35.2 80.7,-79.3 43.5,-2569.7 -1019.7,-4902.3 -3074.5,-6745.7 -2444.6,-2193.2 -6114.1,-3476.1 -9727.1,-3476.2"
         style="fill:#4444a9;fill-opacity:1;fill-rule:nonzero;stroke:none"
         id="path107" /><path
         d="m 20155,9384.8 c -1186.2,0 -2405.5,106.5 -3635.3,324 51.8,44.9 102.9,90.6 153.3,137.2 1178.5,-201.3 2346.7,-300 3483.7,-300 3654.6,0 6990.4,1019.3 9340.4,2926.9 2586.3,2099.4 3945.7,5134.4 4040.5,9020.6 1,43.9 37,78.7 80.6,78.7 h 2 c 44.6,-1.1 79.9,-38.1 78.8,-82.7 -49.4,-2025.7 -449.8,-3850.7 -1190.1,-5424.3 -684.7,-1455.2 -1663.7,-2706 -2910,-3717.6 C 27220.3,10416.7 23847.1,9384.8 20155,9384.8"
         style="fill:#4444a9;fill-opacity:1;fill-rule:nonzero;stroke:none"
         id="path109" /><path
         d="m 17787.4,11214.1 c 31.9,52 63.1,104.3 93.8,157 1.2,2.2 2.5,4.4 3.8,6.6 277.6,7.2 557,23.1 837,47.4 19.4,-56.7 38.7,-108.8 58,-157 -332.5,-29.8 -663.7,-48 -992.6,-54"
         style="fill:#4444a9;fill-opacity:1;fill-rule:nonzero;stroke:none"
         id="path111" /><path
         d="m 33988.4,21901.5 c -50,54 -110.5,99.1 -179.2,134.1 l -66.7,28 c -22,10.5 -47.1,13.8 -70.8,21.3 -47.1,16.3 -98.9,18.7 -149.6,27.1 -51.4,5.1 -104.4,3.1 -157.3,5.2 l -160.7,-14 -8.3,-0.8 c -2.4,-0.2 -4.8,-0.3 -7.1,-0.3 -41.3,0 -76.5,31.6 -80.2,73.6 0,0.8 -0.1,1.7 -0.1,2.5 126.5,34.7 240.1,49.9 342.2,49.9 185.4,0 332.4,-50.1 448.6,-124.2 43.2,-77.1 71.6,-149.3 89.2,-202.4"
         style="fill:#000070;fill-opacity:1;fill-rule:nonzero;stroke:none"
         id="path113" /><path
         d="m 16102.9,9388.3 c -64.1,21.2 -128.1,42.6 -192,64.6 l -112.4,-16.7 c -22.7,-3.4 -39.5,-13.6 -52.4,-28.1 -18.5,66.1 3.9,139.2 60.7,183 l 1.6,1.3 0.3,0.2 c 351.5,270.7 684.9,564.4 984.2,891.7 302.5,324 572.6,678.3 813.1,1052.8 237.3,376.5 438,777.6 608.6,1190.6 73.8,182.6 80.5,394.6 11.7,582.8 -33.3,94.5 -87.6,181.2 -155.3,256.4 -71.1,76.2 -154.6,144.2 -245.4,203.2 l -0.4,0.2 c -36.1,23.5 -47.2,70.9 -26.2,107.8 8.7,1 17.4,1.5 26.2,1.5 49.6,0 100.4,-16.2 144.7,-52.4 280,-228.9 371.2,-516.5 371.2,-516.5 32.6,-260 66.9,-494.2 102.4,-705.1 -56.4,-163.6 -118.9,-325 -187.2,-484.1 -109.2,-254.4 -233.3,-502.7 -371.3,-743.8 -1.3,-2.2 -2.6,-4.4 -3.8,-6.6 -30.7,-52.7 -61.9,-105 -93.8,-157 -174.4,-284.5 -368,-558.3 -584.3,-813.6 -42.4,-50.1 -85.8,-99.5 -130,-148.1 -4,-4.5 -8.1,-8.9 -12.2,-13.4 -123.3,-136.7 -252.8,-267.9 -387.9,-393 -50.4,-46.6 -101.5,-92.3 -153.3,-137.2 -63.1,-54.7 -127.2,-108 -192.5,-160 -66.2,19.5 -132.1,39.4 -198.1,59.8 l -26.2,-220.3"
         style="fill:#000070;fill-opacity:1;fill-rule:nonzero;stroke:none"
         id="path115" /><path
         d="m 24384.7,15886.2 c -12,0 -23.9,0.1 -36,0.2 0.6,10.6 1.3,21.3 2,32 7.9,124.7 28.3,258.4 44.3,393 l 1.4,11.6 c 1.5,13.8 -0.3,27.9 -5.7,40.9 141.5,257.1 397,449.8 706.2,500.9 2853.6,472.3 4151.3,2996.5 4906.2,4404 754.2,1406.2 1880,1729 2475.8,1797.5 -1090.5,-503.2 -1760.8,-1579.4 -2280.1,-2627 -1531,-3023.1 -3484.3,-4553.1 -5814.1,-4553.1"
         style="fill:#1862d4;fill-opacity:1;fill-rule:nonzero;stroke:none"
         id="path117" /><path
         d="m 24347.7,15695.7 c -3.5,62.4 -2.5,125.9 1,190.7 12.1,-0.1 24,-0.2 36,-0.2 2329.8,0 4283.1,1530 5814.1,4553.1 519.3,1047.6 1189.6,2123.8 2280.1,2627 118.5,13.6 216.1,17.1 285.6,17.1 75.6,0 118.1,-4.2 118.1,-4.2 -1883.8,-1076.4 -1695.4,-1184.1 -3444.6,-4332.6 -1618.9,-2914.1 -4648.2,-3047.2 -5090.3,-3050.9"
         style="fill:#000070;fill-opacity:1;fill-rule:nonzero;stroke:none"
         id="path119" /><path
         d="m 24327.1,15695.6 c -22.2,0 -33.9,0.3 -33.9,0.3 -4,19.1 -7.4,38 -10.4,56.9 -34.5,217.6 8.5,430.3 107.9,611.1 5.4,-13 7.2,-27.1 5.7,-40.9 l -1.4,-11.6 c -16,-134.6 -36.4,-268.3 -44.3,-393 -0.7,-10.7 -1.4,-21.4 -2,-32 -3.5,-64.8 -4.5,-128.3 -1,-190.7 -7.7,-0.1 -14.5,-0.1 -20.6,-0.1"
         style="fill:#000070;fill-opacity:1;fill-rule:nonzero;stroke:none"
         id="path121" /><path
         d="m 10337.9,14455.3 c -741.42,670 -1372.49,1477.3 -1848.08,2419.8 -377.91,1484.3 -481.96,3179.6 -316.75,5097.3 7.72,89.6 -54.69,170.2 -143.46,185.1 -1711.61,287.3 -2654.18,1038.2 -2866.17,2289.7 311.46,-593.7 1094.32,-1479.4 3049.23,-1904.4 188.13,-41 322.52,-207.3 322.48,-399.8 -0.25,-1155.6 130.21,-5049 1802.75,-7687.7"
         style="fill:#1862d4;fill-opacity:1;fill-rule:nonzero;stroke:none"
         id="path123" /><path
         d="m 12267.6,11430.5 c -1015.2,698.3 -1842.8,1525.6 -2485.27,2488.4 716.67,-873.9 1597.97,-1610.5 2637.37,-2202.6 -47.9,-96.8 -98.7,-192.1 -152.1,-285.8 m 221.7,432 c -1417.1,809.4 -2534.63,1892.6 -3334.98,3230.1 960.58,-1226.2 2133.08,-2175 3498.48,-2829.3 -1.6,-4.4 -3.1,-8.7 -4.7,-13 -47.6,-131.6 -100.7,-260.9 -158.8,-387.8 m -1106.7,1328.2 c -994.2,695.2 -1855.69,1582.9 -2573.92,2653.5 -122.05,331.6 -228.31,675.2 -318.86,1030.9 475.59,-942.5 1106.66,-1749.8 1848.08,-2419.8 297.1,-468.7 642.4,-897.4 1044.7,-1264.6"
         style="fill:#b2b2d4;fill-opacity:1;fill-rule:nonzero;stroke:none"
         id="path125" /><path
         d="m 12419.7,11716.3 c -1039.4,592.1 -1920.7,1328.7 -2637.37,2202.6 -393.89,590.3 -718.39,1231.9 -973.65,1925.3 718.23,-1070.6 1579.72,-1958.3 2573.92,-2653.5 379.2,-346.1 809.3,-637.5 1295.6,-854.8 -8.3,-24.3 -16.7,-48.5 -25.4,-72.6 -1365.4,654.3 -2537.9,1603.1 -3498.48,2829.3 800.35,-1337.5 1917.88,-2420.7 3334.98,-3230.1 -22.5,-49.1 -45.7,-97.9 -69.6,-146.2"
         style="fill:#4444a9;fill-opacity:1;fill-rule:nonzero;stroke:none"
         id="path127" /><path
         d="m 12179.6,11281.3 c -2090.9,1435.6 -3499.71,3490.4 -4025.22,6345.8 -217.97,1187.3 -283.62,2512.9 -181.91,3989.8 8.07,122.2 17.77,246 28.52,370.3 -2077.5,348.8 -3018.82,1375.7 -3055.42,2942.4 -1.07,38.2 4.3,74.3 15.07,108.2 1.5,-14.6 27.43,-256.3 202.8,-590.6 211.99,-1251.5 1154.56,-2002.4 2866.17,-2289.7 88.77,-14.9 151.18,-95.5 143.46,-185.1 -165.21,-1917.7 -61.16,-3613 316.75,-5097.3 90.55,-355.7 196.81,-699.3 318.86,-1030.9 255.26,-693.4 579.76,-1335 973.65,-1925.3 642.47,-962.8 1470.07,-1790.1 2485.27,-2488.4 -28.6,-50.2 -57.9,-99.9 -88,-149.2"
         style="fill:#000070;fill-opacity:1;fill-rule:nonzero;stroke:none"
         id="path129" /><path
         d="m 12286.5,11208.9 c -35.8,24 -71.4,48.1 -106.9,72.4 30.1,49.3 59.4,99 88,149.2 53.4,93.7 104.2,189 152.1,285.8 23.9,48.3 47.1,97.1 69.6,146.2 58.1,126.9 111.2,256.2 158.8,387.8 1.6,4.3 3.1,8.6 4.7,13 8.7,24.1 17.1,48.3 25.4,72.6 37.6,-16.8 75.2,-33 113.4,-48.9 0,0 -193.7,-740.1 -504.8,-1078 l -0.3,-0.1"
         style="fill:#000070;fill-opacity:1;fill-rule:nonzero;stroke:none"
         id="path131" /><path
         d="m 9929.45,20468.5 c -446.07,475.8 -591.74,1230.9 -638.91,1708.8 -23.28,235.8 158,440.1 394.74,449.2 1628.82,62.8 2736.42,651.2 3322.22,1764.7 -37.7,-378.2 -220,-770.6 -527.6,-1120.2 -589.1,-669.5 -1511.7,-1056.9 -2501.8,-1056.9 -70.14,0 -140.71,1.9 -211.43,5.8 -2.94,0.2 -5.86,0.3 -8.79,0.3 -45.45,0 -89.74,-17.8 -122.31,-50.1 -34.72,-34.4 -53.17,-82 -50.88,-130.8 28.44,-602.5 143.84,-1127.2 344.76,-1570.8"
         style="fill:#1862d4;fill-opacity:1;fill-rule:nonzero;stroke:none"
         id="path133" /><path
         d="m 10269.6,20200.9 c -129.4,71.7 -242,162.9 -340.15,267.6 -200.92,443.6 -316.32,968.3 -344.76,1570.8 -2.29,48.8 16.16,96.4 50.88,130.8 32.57,32.3 76.86,50.1 122.31,50.1 2.93,0 5.85,-0.1 8.79,-0.3 70.72,-3.9 141.29,-5.8 211.43,-5.8 990.1,0 1912.7,387.4 2501.8,1056.9 307.6,349.6 489.9,742 527.6,1120.2 60.4,114.8 115.3,235.3 164.6,361.3 175.9,-1241 -1202.9,-2711.3 -3190,-2711.3 -74.23,0 -149.04,2.1 -224.92,6.3 36.06,-763.2 215.84,-1374.6 512.42,-1846.6"
         style="fill:#000070;fill-opacity:1;fill-rule:nonzero;stroke:none"
         id="path135" /><path
         d="m 26146.2,21493.9 c -215.3,0 -378.4,86.7 -477.2,305.6 -286.1,633.9 345.9,1537.6 1411.5,2018.5 437.7,197.6 880.6,293.1 1270.3,293.1 559,0 1008.5,-196.4 1177.1,-569.8 286.1,-633.9 -615.7,-939.7 -1681.3,-1420.7 -697.5,-314.8 -1292.5,-626.7 -1700.4,-626.7"
         style="fill:#59a9ff;fill-opacity:1;fill-rule:nonzero;stroke:none"
         id="path137" /><path
         d="m 24094.4,20378.6 c -194.3,0 -356.5,68.8 -438.6,239.4 -161.3,334.7 44.7,768.3 459.9,968.3 140.8,67.8 287.6,100.1 426.4,100.1 270.6,0 510.9,-122.7 617.5,-344 161.3,-334.7 -42.6,-601.9 -457.9,-801.9 -203.6,-98.1 -420.4,-161.9 -607.3,-161.9"
         style="fill:#59a9ff;fill-opacity:1;fill-rule:nonzero;stroke:none"
         id="path139" /><path
         d="m 22216.9,19753.4 c -710,9.7 -1285.3,-747.7 -1285,-1691.6 0.2,-944 576,-1717 1286,-1726.7 710,-9.6 1285.3,747.7 1285,1691.7 -0.2,943.9 -576,1716.9 -1286,1726.6"
         style="fill:#000072;fill-opacity:1;fill-rule:nonzero;stroke:none"
         id="path141" /><path
         d="m 22208.5,19357.3 c -215,-103.6 -278.1,-429.9 -140.9,-728.8 137.2,-299 422.8,-457.3 637.9,-353.7 215,103.6 278.2,429.9 140.9,728.9 -137.2,298.9 -422.8,457.3 -637.9,353.6"
         style="fill:#ffffff;fill-opacity:1;fill-rule:nonzero;stroke:none"
         id="path143" /><path
         d="m 21665.2,17284.7 c -98.5,-80.4 -93,-257.1 12.3,-394.7 105.3,-137.5 270.5,-183.8 369,-103.4 98.6,80.4 93.1,257.1 -12.2,394.6 -105.3,137.6 -270.6,183.9 -369.1,103.5"
         style="fill:#b199c5;fill-opacity:1;fill-rule:nonzero;stroke:none"
         id="path145" /></g></g></svg>
